<?xml version="1.0" encoding="UTF-8" standalone="no"?>
<svg
   version="1.1"
   id="svg1"
   width="24"
   height="24"
   viewBox="0 0 24 24.000001"
   sodipodi:docname="configuration.svg"
   inkscape:version="1.2 (dc2aedaf03, 2022-05-15)"
   xmlns:inkscape="http://www.inkscape.org/namespaces/inkscape"
   xmlns:sodipodi="http://sodipodi.sourceforge.net/DTD/sodipodi-0.dtd"
   xmlns="http://www.w3.org/2000/svg"
   xmlns:svg="http://www.w3.org/2000/svg"
   xmlns:rdf="http://www.w3.org/1999/02/22-rdf-syntax-ns#"
   xmlns:cc="http://creativecommons.org/ns#"
   xmlns:dc="http://purl.org/dc/elements/1.1/">
  <metadata
     id="metadata11">
    <rdf:RDF>
      <cc:Work
         rdf:about="">
        <dc:format>image/svg+xml</dc:format>
        <dc:type
           rdf:resource="http://purl.org/dc/dcmitype/StillImage" />
        <dc:title />
      </cc:Work>
    </rdf:RDF>
  </metadata>
  <defs
     id="defs9" />
  <sodipodi:namedview
     pagecolor="#ffffff"
     bordercolor="#666666"
     borderopacity="1"
     objecttolerance="10"
     gridtolerance="10"
     guidetolerance="10"
     inkscape:pageopacity="0"
     inkscape:pageshadow="2"
     inkscape:window-width="1920"
     inkscape:window-height="1001"
     id="namedview7"
     showgrid="false"
     fit-margin-top="0"
     fit-margin-left="0"
     fit-margin-right="0"
     fit-margin-bottom="0"
     inkscape:zoom="8"
     inkscape:cx="15.0625"
     inkscape:cy="5.0625"
     inkscape:window-x="-9"
     inkscape:window-y="-9"
     inkscape:window-maximized="1"
     inkscape:current-layer="g2855-77-5"
     inkscape:snap-global="false"
     inkscape:showpageshadow="0"
     inkscape:pagecheckerboard="0"
     inkscape:deskcolor="#d1d1d1" />
  <g
     id="g4685">
    <g
       style="fill:#958b62"
       id="g2855-77-5"
       transform="matrix(2.6078662,0,0,2.6078662,57.968379,-219.20782)">
      <g
         style="fill:#958b62"
         transform="matrix(0.75973464,0,0,0.75973464,-77.150151,-49.65997)"
         id="g1988-21-9-7" />
      <path
         id="path48309"
         style="fill:#f3e2d9;fill-opacity:1;stroke:#845d48;stroke-width:0.383457;stroke-linecap:round;stroke-linejoin:round;stroke-dasharray:none;stroke-opacity:1"
         inkscape:transform-center-x="-2.0716003e-05"
         inkscape:transform-center-y="0.00011150295"
         d="m -17.959361,84.232629 c -0.03293,0.0012 -0.06757,0.004 -0.104979,0.0083 -1.197535,0.135324 0.285178,1.307978 -0.793847,1.844675 -1.079027,0.536696 -1.120626,-1.3522 -1.950999,-0.478862 -0.830374,0.87334 1.059549,0.819056 0.577986,1.923699 -0.481563,1.104643 -1.727705,-0.316936 -1.802376,0.885776 -0.07468,1.20271 1.337293,-0.0541 1.67852,1.101614 0.341232,1.155716 -1.52751,0.868275 -0.811539,1.837598 0.715972,0.969324 0.991467,-0.900727 1.995822,-0.234713 1.004359,0.666017 -0.612486,1.647221 0.559115,1.929596 1.171602,0.282377 0.180197,-1.327209 1.377732,-1.462529 1.197534,-0.135324 0.588877,1.654825 1.667903,1.118128 1.079029,-0.536697 -0.714775,-1.131744 0.115605,-2.005083 0.830373,-0.873338 1.515439,0.887624 1.997001,-0.217019 0.481564,-1.104643 -1.275467,-0.407251 -1.200795,-1.609963 0.07468,-1.202712 1.731934,-0.292661 1.390706,-1.448375 -0.341228,-1.155718 -1.238567,0.506974 -1.954538,-0.46235 -0.715971,-0.969322 1.137647,-1.337885 0.133305,-2.003901 -1.004355,-0.666015 -0.622515,1.185843 -1.794116,0.903465 -1.13499,-0.273552 -0.06005,-1.666317 -1.080482,-1.630013 z m 0.332636,2.876703 a 1.548049,1.5479113 0 0 1 1.547588,1.548629 1.548049,1.5479113 0 0 1 -1.547588,1.547452 1.548049,1.5479113 0 0 1 -1.548768,-1.547452 1.548049,1.5479113 0 0 1 1.548768,-1.548629 z" />
    </g>
  </g>
</svg>
