<?xml version="1.0" encoding="UTF-8" standalone="no"?>
<svg
   version="1.1"
   id="svg1"
   width="24"
   height="24"
   viewBox="0 0 24 24.000001"
   sodipodi:docname="translation.svg"
   inkscape:version="1.2 (dc2aedaf03, 2022-05-15)"
   xmlns:inkscape="http://www.inkscape.org/namespaces/inkscape"
   xmlns:sodipodi="http://sodipodi.sourceforge.net/DTD/sodipodi-0.dtd"
   xmlns="http://www.w3.org/2000/svg"
   xmlns:svg="http://www.w3.org/2000/svg"
   xmlns:rdf="http://www.w3.org/1999/02/22-rdf-syntax-ns#"
   xmlns:cc="http://creativecommons.org/ns#"
   xmlns:dc="http://purl.org/dc/elements/1.1/">
  <metadata
     id="metadata11">
    <rdf:RDF>
      <cc:Work
         rdf:about="">
        <dc:format>image/svg+xml</dc:format>
        <dc:type
           rdf:resource="http://purl.org/dc/dcmitype/StillImage" />
        <dc:title />
      </cc:Work>
    </rdf:RDF>
  </metadata>
  <defs
     id="defs9" />
  <sodipodi:namedview
     pagecolor="#ffffff"
     bordercolor="#666666"
     borderopacity="1"
     objecttolerance="10"
     gridtolerance="10"
     guidetolerance="10"
     inkscape:pageopacity="0"
     inkscape:pageshadow="2"
     inkscape:window-width="1920"
     inkscape:window-height="1001"
     id="namedview7"
     showgrid="false"
     fit-margin-top="0"
     fit-margin-left="0"
     fit-margin-right="0"
     fit-margin-bottom="0"
     inkscape:zoom="8"
     inkscape:cx="18.0625"
     inkscape:cy="9.5625"
     inkscape:window-x="-9"
     inkscape:window-y="-9"
     inkscape:window-maximized="1"
     inkscape:current-layer="svg1"
     inkscape:snap-global="false"
     inkscape:showpageshadow="0"
     inkscape:pagecheckerboard="0"
     inkscape:deskcolor="#d1d1d1" />
  <path
     id="path4709-3-3-5"
     d="M 23.5,12 A 11.5,11.5 0 0 1 12,23.5 11.5,11.5 0 0 1 0.49999995,12 11.5,11.5 0 0 1 12,0.49999995 11.5,11.5 0 0 1 23.5,12 Z"
     style="fill:#fcc0b4;fill-opacity:1;stroke:#8d533e;stroke-width:1;stroke-linejoin:round;stroke-miterlimit:4;stroke-dasharray:none;stroke-opacity:1"
     inkscape:connector-curvature="0" />
  <path
     id="path4709-3-3"
     d="M 10.443359,0.61914057 A 11.5,11.5 0 0 0 6.7597657,1.765625 L 6.7148439,2.0117188 7.4218751,1.7460938 7.6191407,1.8359374 8.1289063,1.7460938 8.5488282,1.5253906 9.1660158,1.4589844 9.7636721,1.1933594 10.359375,0.97265621 11,0.64257807 Z"
     style="fill:#fef4f2;fill-opacity:1;stroke:none;stroke-width:1;stroke-linejoin:bevel;stroke-miterlimit:4;stroke-dasharray:none;stroke-opacity:1"
     inkscape:connector-curvature="0" />
  <path
     id="path4709-3"
     d="M 2.40625,5.669922 A 11.5,11.5 0 0 0 0.49999995,12 11.5,11.5 0 0 0 1.640625,16.970704 l 0.080078,0.06641 0.066406,-0.75 L 1.763672,15.580083 1.853516,14.740239 1.78711,14.320317 2.1835944,14.009771 2.3378912,14.142583 2.6484374,13.302733 2.890625,12.419922 3.3769531,11.734375 3.7089844,10.873047 3.3984375,10.365234 3.1113282,9.6796877 2.4492188,8.839844 2.8027344,8.1328127 2.8691406,7.3593751 2.6914062,6.873047 V 6.3437501 Z"
     style="fill:#fef4f2;fill-opacity:1;stroke:none;stroke-width:1;stroke-linejoin:bevel;stroke-miterlimit:4;stroke-dasharray:none;stroke-opacity:1"
     inkscape:connector-curvature="0" />
  <path
     id="path4709"
     d="m 16.259766,2.2773438 -0.552735,0.265625 -0.375,0.021484 -0.287109,0.044922 -0.02148,0.2421875 0.130859,0.1542969 0.265626,0.044922 0.04492,0.087891 -0.353517,0.066406 -0.02344,0.220703 -0.308594,0.044922 -0.464844,0.087891 -0.353515,0.1542968 -0.353516,-0.066406 -0.330077,-0.1093751 0.04297,0.1757813 0.08984,0.265625 -0.132812,0.2871094 -0.44336,-0.109375 -0.484375,-0.2226562 -0.353515,0.3320312 -0.111328,0.3535156 -0.199219,0.1992188 0.464844,0.2421875 0.683593,0.1113281 0.265625,-0.1777344 0.419922,-0.1757812 0.244141,0.044922 0.197266,-0.1992187 0.332031,0.087891 0.398437,0.044922 0.28711,0.3300782 0.287109,0.3984375 0.111328,0.3085938 -0.199219,0.111328 -0.220703,-0.021484 0.220703,0.220703 0.199219,0.021484 0.242188,-0.1093749 0.265625,-0.1992187 -0.28711,-0.3984376 -0.220703,-0.3984375 -0.06641,-0.2636719 0.419921,0.375 0.375001,0.2871094 -0.111329,0.3535157 0.132813,0.265625 0.287109,0.2656249 0.199218,-0.044922 0.04492,-0.3085937 0.330079,0.109375 0.06641,0.375 -0.02148,0.2226562 0.574219,0.2636719 0.287109,0.265625 h 0.265625 L 18.205079,7.537109 18.048826,7.9335952 17.894528,8.1113295 17.23242,7.9550795 16.613282,7.7343751 16.28125,7.513672 16.060548,7.2265627 H 15.794923 L 15.685547,7.5585939 15.265625,7.3808595 15.066406,7.1601563 14.91211,6.8515626 14.580078,6.607422 14.425781,6.3867189 14.580078,6.2773438 14.646485,5.9453126 14.359376,5.8574219 13.939453,5.701172 13.498048,5.5468751 12.878906,5.4589845 12.613281,5.5468751 12.126954,5.326172 11.81836,5.216797 11.15625,5.4375001 10.912109,5.5917969 10.802734,5.8789062 10.580078,5.9902345 10.117189,6.0566406 9.5644533,6.2539063 8.9687501,6.6738282 8.636719,7.2050782 8.2167971,7.7343751 7.996094,8.2207032 8.083985,8.5527346 8.2382819,8.8613283 8.34961,9.3046877 l 0.265625,0.5292968 0.1972656,0.4199215 0.1777344,0.28711 0.4414063,-0.154297 0.4199219,0.06641 0.2207028,0.353516 0.398437,-0.08789 0.375,-0.08984 0.419923,0.02344 0.220702,0.375 -0.04297,0.464845 0.06641,0.109373 0.529295,0.02344 0.177735,0.308594 -0.156249,0.353516 -0.109376,0.332031 -0.398438,0.529297 -0.109375,0.287109 0.175782,0.398437 0.111328,0.81836 -0.220702,0.484375 v 0.419922 l -0.156251,0.398438 -0.197266,0.242188 -0.376953,0.265624 -0.08789,0.398437 0.02149,0.574219 0.08984,0.353515 -0.24414,0.619141 -0.06641,0.308594 0.08789,0.552734 -0.04297,0.464844 0.175783,0.308594 0.53125,0.132813 0.79492,0.111327 0.640627,-0.111327 0.507811,-0.308593 0.222656,-0.11133 -0.132811,-0.242187 0.17578,-0.177733 h 0.707032 l 0.310547,-0.265626 0.06641,-0.462891 0.707032,-0.220703 0.707031,-0.289063 0.353517,-0.574218 0.109373,-0.396484 0.265626,-0.619141 0.308593,-0.685547 0.464845,-0.353516 0.751952,-0.462891 0.861328,-0.576171 0.507813,-0.640626 0.398438,-0.396484 0.06641,-0.353516 h -0.597657 l -0.374999,-0.02344 -0.441414,-0.353526 v -0.728515 l -0.287109,-0.884765 -0.06641,-0.970704 -0.265625,-0.5312498 -0.154296,-0.6855469 0.220704,0.023437 0.265625,0.5742187 0.242186,0.707031 -0.02148,0.375 0.154296,0.507813 0.154298,0.464843 -0.02148,0.751953 0.109375,0.242187 0.332031,0.06641 0.81836,-0.398438 0.75,-0.396484 0.265625,-0.419922 0.199219,-0.376952 -0.220704,-0.396485 -0.53125,-0.199219 -0.396484,-0.5312497 -0.222656,-0.4414063 0.132812,-0.4628906 0.28711,0.5078126 0.24414,0.3320311 0.507813,0.4628899 0.552734,-0.02148 0.242188,0.353516 0.265625,0.529296 0.132812,0.353516 0.220703,0.353516 V 12.375 l 0.02148,0.861328 -0.109375,0.81836 0.132812,0.464843 0.175782,0.08789 -0.02148,-0.728516 0.17578,-0.773437 0.15625,-0.509766 0.199219,-0.683594 0.06445,-0.929687 0.02344,-0.767578 A 11.5,11.5 0 0 0 18.513672,2.5214844 L 18.337892,2.6757812 18.646485,3.2050781 18.072267,3.09375 17.718751,2.8730469 17.341797,2.7402344 16.857422,2.4101562 Z"
     style="fill:#fef4f2;fill-opacity:1;stroke:none;stroke-width:1;stroke-linejoin:bevel;stroke-miterlimit:4;stroke-dasharray:none;stroke-opacity:1"
     inkscape:connector-curvature="0" />
  <path
     inkscape:connector-curvature="0"
     id="path4726"
     d="m 15.574895,20.065222 0.751302,-0.441942 0.707106,-0.707107 0.552427,-0.552426 0.15468,-0.486137 -0.486136,0.486137 -0.375651,0.08839 -0.486136,0.198874 -0.243067,0.464038 -0.508233,0.353553 -0.265165,0.353554 v 0.265166 z"
     style="fill:#fef4f2;fill-opacity:1;stroke:none;stroke-width:1;stroke-linecap:butt;stroke-linejoin:bevel;stroke-dasharray:none;stroke-opacity:1" />
  <path
     inkscape:connector-curvature="0"
     id="path4730"
     d="m 14.028099,2.4759407 -0.331456,0.1767767 0.154679,0.3093592 -0.198872,0.1767767 -0.198875,0.1546796 0.176776,0.1546796 0.353554,0.1104855 0.243068,-0.1546796 -0.08839,-0.486136 0.08839,-0.3093592 z"
     style="fill:#fef4f2;fill-opacity:1;stroke:none;stroke-width:1;stroke-linecap:butt;stroke-linejoin:bevel;stroke-dasharray:none;stroke-opacity:1" />
  <path
     inkscape:connector-curvature="0"
     id="path4732"
     d="M 13.254701,2.7852999 13.011633,2.9841737 13.343089,3.1388533 13.541963,3.0283679 13.696643,2.807397 13.497769,2.6748145 Z"
     style="fill:#fef4f2;fill-opacity:1;stroke:none;stroke-width:1;stroke-linecap:butt;stroke-linejoin:bevel;stroke-dasharray:none;stroke-opacity:1" />
  <path
     inkscape:connector-curvature="0"
     id="path4734"
     d="m 13.210507,1.4373776 0.06629,0.243068 0.353553,0.044193 0.353555,0.022097 -0.375652,-0.1988738 z"
     style="fill:#fef4f2;fill-opacity:1;stroke:none;stroke-width:1;stroke-linecap:butt;stroke-linejoin:bevel;stroke-dasharray:none;stroke-opacity:1" />
  <path
     id="path4709-3-3-5-7"
     d="M 13.541016,0.77539058 11.90625,0.81835937 11.177734,1.0625 l 0.06641,0.2421875 0.949218,-0.1992187 0.90625,0.087891 0.419922,0.1328125 0.861328,-0.087891 0.664063,0.044922 0.728516,0.1992188 0.220704,0.1972656 0.927733,0.1777344 0.667969,0.097656 A 11.5,11.5 0 0 0 14.46875,0.77539058 Z"
     style="fill:#fef4f2;fill-opacity:1;stroke:none;stroke-width:1;stroke-linejoin:bevel;stroke-miterlimit:4;stroke-dasharray:none;stroke-opacity:1"
     inkscape:connector-curvature="0" />
  <path
     id="path4709-3-3-5-8"
     d="M 23.5,12 A 11.5,11.5 0 0 1 12,23.5 11.5,11.5 0 0 1 0.49999995,12 11.5,11.5 0 0 1 12,0.49999995 11.5,11.5 0 0 1 23.5,12 Z"
     style="fill:none;fill-opacity:1;stroke:#ca795c;stroke-width:1;stroke-linejoin:round;stroke-miterlimit:4;stroke-dasharray:none;stroke-opacity:1"
     inkscape:connector-curvature="0" />
</svg>
