<?xml version="1.0" encoding="UTF-8" standalone="no"?>
<svg
   xmlns:dc="http://purl.org/dc/elements/1.1/"
   xmlns:cc="http://creativecommons.org/ns#"
   xmlns:rdf="http://www.w3.org/1999/02/22-rdf-syntax-ns#"
   xmlns:svg="http://www.w3.org/2000/svg"
   xmlns="http://www.w3.org/2000/svg"
   xmlns:sodipodi="http://sodipodi.sourceforge.net/DTD/sodipodi-0.dtd"
   xmlns:inkscape="http://www.inkscape.org/namespaces/inkscape"
   version="1.1"
   id="svg1"
   width="24"
   height="24"
   viewBox="0 0 24 24.000001"
   sodipodi:docname="translation.svg"
   inkscape:version="0.92.4 (5da689c313, 2019-01-14)">
  <metadata
     id="metadata11">
    <rdf:RDF>
      <cc:Work
         rdf:about="">
        <dc:format>image/svg+xml</dc:format>
        <dc:type
           rdf:resource="http://purl.org/dc/dcmitype/StillImage" />
        <dc:title></dc:title>
      </cc:Work>
    </rdf:RDF>
  </metadata>
  <defs
     id="defs9" />
  <sodipodi:namedview
     pagecolor="#ffffff"
     bordercolor="#666666"
     borderopacity="1"
     objecttolerance="10"
     gridtolerance="10"
     guidetolerance="10"
     inkscape:pageopacity="0"
     inkscape:pageshadow="2"
     inkscape:window-width="1920"
     inkscape:window-height="1017"
     id="namedview7"
     showgrid="false"
     fit-margin-top="0"
     fit-margin-left="0"
     fit-margin-right="0"
     fit-margin-bottom="0"
     inkscape:zoom="11.313708"
     inkscape:cx="2.763695"
     inkscape:cy="8.2786322"
     inkscape:window-x="1358"
     inkscape:window-y="-8"
     inkscape:window-maximized="1"
     inkscape:current-layer="svg1"
     inkscape:snap-global="false" />
  <g
     id="g4833"
     transform="matrix(1.0434783,0,0,1.0434783,-0.5217396,-0.5217396)"
     style="stroke-width:0.95833331">
    <path
       id="path4709-3-3-5"
       d="M 23.5,12 A 11.5,11.5 0 0 1 12,23.5 11.5,11.5 0 0 1 0.5,12 11.5,11.5 0 0 1 12,0.5 11.5,11.5 0 0 1 23.5,12 Z"
       style="fill:#958b62;fill-opacity:1;stroke:none;stroke-width:1.4375;stroke-linejoin:round;stroke-miterlimit:4;stroke-dasharray:none;stroke-opacity:1"
       inkscape:connector-curvature="0" />
    <path
       id="path4709-3-3"
       d="M 10.443359,0.61914062 A 11.5,11.5 0 0 0 6.7597656,1.765625 L 6.7148438,2.0117188 7.421875,1.7460938 7.6191406,1.8359375 8.1289062,1.7460938 8.5488281,1.5253906 9.1660156,1.4589844 9.7636719,1.1933594 10.359375,0.97265625 11,0.64257812 Z"
       style="fill:#e5e2d8;fill-opacity:1;stroke:none;stroke-width:1.4375;stroke-linejoin:round;stroke-miterlimit:4;stroke-dasharray:none;stroke-opacity:1"
       inkscape:connector-curvature="0" />
    <path
       id="path4709-3"
       d="M 2.40625,5.6699219 A 11.5,11.5 0 0 0 0.5,12 11.5,11.5 0 0 0 1.640625,16.970703 l 0.080078,0.06641 0.066406,-0.75 L 1.763672,15.580082 1.853516,14.740238 1.78711,14.320316 2.1835944,14.00977 2.3378912,14.142582 2.6484375,13.302734 2.890625,12.419922 3.3769531,11.734375 3.7089844,10.873047 3.3984375,10.365234 3.1113281,9.6796875 2.4492188,8.8398438 2.8027344,8.1328125 2.8691406,7.359375 2.6914062,6.8730469 V 6.34375 Z"
       style="fill:#e5e2d8;fill-opacity:1;stroke:none;stroke-width:1.4375;stroke-linejoin:round;stroke-miterlimit:4;stroke-dasharray:none;stroke-opacity:1"
       inkscape:connector-curvature="0" />
    <path
       id="path4709"
       d="m 16.259766,2.2773438 -0.552735,0.265625 -0.375,0.021484 -0.287109,0.044922 -0.02148,0.2421875 0.130859,0.1542969 0.265625,0.044922 0.04492,0.087891 -0.353516,0.066406 -0.02344,0.2207031 -0.308594,0.044922 -0.464844,0.087891 -0.353515,0.1542968 -0.353516,-0.066406 -0.330078,-0.109375 0.04297,0.1757812 0.08984,0.265625 -0.132812,0.2871094 -0.44336,-0.109375 -0.484375,-0.2226562 -0.353515,0.3320312 -0.111328,0.3535156 -0.199219,0.1992188 0.464844,0.2421875 0.683593,0.1113281 0.265625,-0.1777344 0.419922,-0.1757812 0.244141,0.044922 0.197266,-0.1992187 0.332031,0.087891 0.398437,0.044922 0.28711,0.3300781 0.287109,0.3984375 0.111328,0.3085938 -0.199219,0.1113281 -0.220703,-0.021484 0.220703,0.2207031 0.199219,0.021484 0.242188,-0.109375 0.265625,-0.1992187 -0.28711,-0.3984375 -0.220703,-0.3984375 -0.06641,-0.2636719 0.419922,0.375 0.375,0.2871094 -0.111328,0.3535156 0.132812,0.265625 0.287109,0.265625 0.199219,-0.044922 0.04492,-0.3085937 0.330078,0.109375 0.06641,0.375 -0.02148,0.2226562 0.574219,0.2636719 0.287109,0.265625 h 0.265625 l 0.04492,0.3105469 -0.15625,0.3964844 -0.154297,0.1777343 -0.662109,-0.15625 L 16.613281,7.734375 16.28125,7.5136719 16.060547,7.2265625 H 15.794922 L 15.685547,7.5585938 15.265625,7.3808594 15.066406,7.1601562 14.912109,6.8515625 14.580078,6.6074219 14.425781,6.3867188 14.580078,6.2773438 14.646484,5.9453125 14.359375,5.8574219 13.939453,5.7011719 13.498047,5.546875 12.878906,5.4589844 12.613281,5.546875 12.126953,5.3261719 11.818359,5.2167969 11.15625,5.4375 10.912109,5.5917969 10.802734,5.8789062 10.580078,5.9902344 10.117188,6.0566406 9.5644531,6.2539062 8.96875,6.6738281 8.6367188,7.2050781 8.2167969,7.734375 7.9960938,8.2207031 8.0839844,8.5527344 8.2382812,8.8613281 8.3496094,9.3046875 8.6152344,9.8339844 8.8125,10.253906 l 0.1777344,0.28711 0.4414062,-0.154297 0.4199219,0.06641 0.2207035,0.353516 0.398437,-0.08789 0.375,-0.08984 0.419922,0.02344 0.220703,0.375 -0.04297,0.464844 0.06641,0.109374 0.529296,0.02344 0.177735,0.308594 -0.15625,0.353515 -0.109375,0.332032 -0.398438,0.529297 -0.109375,0.287109 0.175782,0.398437 0.111328,0.81836 -0.220703,0.484375 v 0.419922 l -0.15625,0.398437 -0.197266,0.242188 -0.376953,0.265625 -0.08789,0.398437 0.02149,0.574219 0.08984,0.353515 -0.24414,0.619141 -0.06641,0.308594 0.08789,0.552734 -0.04297,0.464844 0.175782,0.308594 0.53125,0.132812 0.794921,0.111328 0.640626,-0.111328 0.507812,-0.308593 0.222656,-0.111329 -0.132812,-0.242187 0.175781,-0.177734 h 0.707031 l 0.310547,-0.265626 0.06641,-0.46289 0.707032,-0.220703 0.707031,-0.289063 0.353516,-0.574218 0.109374,-0.396485 0.265626,-0.619141 0.308593,-0.685546 0.464844,-0.353516 0.751953,-0.462891 0.861328,-0.576171 0.507813,-0.640626 0.398437,-0.396484 0.06641,-0.353516 h -0.597656 l -0.375,-0.02344 L 18.625,12.662109 v -0.728515 l -0.287109,-0.884766 -0.06641,-0.970703 -0.265625,-0.53125 -0.154297,-0.6855469 0.220704,0.023437 0.265625,0.5742188 0.242187,0.7070311 -0.02148,0.375 0.154297,0.507812 0.154297,0.464844 -0.02148,0.751953 0.109375,0.242187 0.332031,0.06641 0.81836,-0.398438 0.75,-0.396484 0.265625,-0.419922 0.199218,-0.376953 -0.220703,-0.396484 -0.53125,-0.199219 -0.396484,-0.5312497 -0.222656,-0.4414063 0.132812,-0.4628906 0.28711,0.5078125 0.24414,0.3320312 0.507813,0.4628899 0.552734,-0.02148 0.242188,0.353516 0.265625,0.529296 0.132812,0.353516 0.220703,0.353516 V 12.375 l 0.02148,0.861328 -0.109375,0.81836 0.132812,0.464843 0.175781,0.08789 -0.02148,-0.728516 0.175781,-0.773437 0.15625,-0.509766 0.199219,-0.683594 0.06445,-0.929687 0.02344,-0.767578 A 11.5,11.5 0 0 0 18.513672,2.5214844 L 18.337891,2.6757812 18.646484,3.2050781 18.072266,3.09375 17.71875,2.8730469 17.341797,2.7402344 16.857422,2.4101562 Z"
       style="fill:#e5e2d8;fill-opacity:1;stroke:none;stroke-width:1.4375;stroke-linejoin:round;stroke-miterlimit:4;stroke-dasharray:none;stroke-opacity:1"
       inkscape:connector-curvature="0" />
    <path
       inkscape:connector-curvature="0"
       id="path4726"
       d="m 15.574895,20.065222 0.751301,-0.441942 0.707107,-0.707107 0.552427,-0.552427 0.15468,-0.486136 -0.486136,0.486136 -0.375651,0.08839 -0.486136,0.198874 -0.243068,0.464039 -0.508233,0.353553 -0.265165,0.353554 v 0.265165 z"
       style="fill:#e5e2d8;stroke:none;stroke-width:0.95833331px;stroke-linecap:butt;stroke-linejoin:miter;stroke-opacity:1" />
    <path
       inkscape:connector-curvature="0"
       id="path4730"
       d="m 14.028099,2.4759407 -0.331456,0.1767767 0.154679,0.3093592 -0.198873,0.1767767 -0.198874,0.1546796 0.176776,0.1546796 0.353554,0.1104855 0.243068,-0.1546796 -0.08839,-0.486136 0.08839,-0.3093592 z"
       style="fill:#e5e2d8;stroke:none;stroke-width:0.95833331px;stroke-linecap:butt;stroke-linejoin:miter;stroke-opacity:1" />
    <path
       inkscape:connector-curvature="0"
       id="path4732"
       d="M 13.254701,2.7852999 13.011633,2.9841737 13.343089,3.1388533 13.541963,3.0283679 13.696643,2.807397 13.497769,2.6748145 Z"
       style="fill:#e5e2d8;stroke:none;stroke-width:0.95833331px;stroke-linecap:butt;stroke-linejoin:miter;stroke-opacity:1" />
    <path
       inkscape:connector-curvature="0"
       id="path4734"
       d="m 13.210507,1.4373776 0.06629,0.243068 0.353553,0.044194 0.353554,0.022097 -0.375651,-0.1988737 z"
       style="fill:#e5e2d8;stroke:none;stroke-width:0.95833331px;stroke-linecap:butt;stroke-linejoin:miter;stroke-opacity:1" />
    <path
       id="path4709-3-3-5-7"
       d="M 13.541016,0.77539062 11.90625,0.81835938 11.177734,1.0625 l 0.06641,0.2421875 0.949218,-0.1992187 0.90625,0.087891 0.419922,0.1328125 0.861328,-0.087891 0.664063,0.044922 0.728516,0.1992188 0.220703,0.1972656 0.927734,0.1777344 0.667969,0.097656 A 11.5,11.5 0 0 0 14.46875,0.77539062 Z"
       style="fill:#e5e2d8;fill-opacity:1;stroke:none;stroke-width:1.4375;stroke-linejoin:round;stroke-miterlimit:4;stroke-dasharray:none;stroke-opacity:1"
       inkscape:connector-curvature="0" />
  </g>
</svg>
