<?xml version="1.0" encoding="UTF-8" standalone="no"?>
<svg
   xmlns:dc="http://purl.org/dc/elements/1.1/"
   xmlns:cc="http://creativecommons.org/ns#"
   xmlns:rdf="http://www.w3.org/1999/02/22-rdf-syntax-ns#"
   xmlns:svg="http://www.w3.org/2000/svg"
   xmlns="http://www.w3.org/2000/svg"
   xmlns:sodipodi="http://sodipodi.sourceforge.net/DTD/sodipodi-0.dtd"
   xmlns:inkscape="http://www.inkscape.org/namespaces/inkscape"
   version="1.1"
   id="svg1"
   width="24"
   height="24"
   viewBox="0 0 24 24.000001"
   sodipodi:docname="colorbloc.svg"
   inkscape:version="1.0.1 (3bc2e813f5, 2020-09-07)">
  <metadata
     id="metadata11">
    <rdf:RDF>
      <cc:Work
         rdf:about="">
        <dc:format>image/svg+xml</dc:format>
        <dc:type
           rdf:resource="http://purl.org/dc/dcmitype/StillImage" />
        <dc:title />
      </cc:Work>
    </rdf:RDF>
  </metadata>
  <defs
     id="defs9">
    <pattern
       id="EMFhbasepattern"
       patternUnits="userSpaceOnUse"
       width="6"
       height="6"
       x="0"
       y="0" />
  </defs>
  <sodipodi:namedview
     pagecolor="#ffffff"
     bordercolor="#666666"
     borderopacity="1"
     objecttolerance="10"
     gridtolerance="10"
     guidetolerance="10"
     inkscape:pageopacity="0"
     inkscape:pageshadow="2"
     inkscape:window-width="1920"
     inkscape:window-height="1017"
     id="namedview7"
     showgrid="false"
     fit-margin-top="0"
     fit-margin-left="0"
     fit-margin-right="0"
     fit-margin-bottom="0"
     inkscape:zoom="8.2659135"
     inkscape:cx="76.063431"
     inkscape:cy="7.6013985"
     inkscape:window-x="-8"
     inkscape:window-y="-8"
     inkscape:window-maximized="1"
     inkscape:current-layer="svg1"
     inkscape:document-rotation="0" />
  <path
     style="fill:#958b62;fill-opacity:1;stroke-width:0.316359"
     d="m 9.1924185,22.818049 c -0.255164,-0.123062 -0.272202,-0.206387 -0.272202,-1.331221 0,-0.878644 -0.04628,-1.246217 -0.172827,-1.372769 -0.246498,-0.246499 -0.521519,-0.214128 -0.844304,0.09938 -1.558262,1.513456 -1.750898,1.572296 -2.57451,0.786362 -0.688254,-0.656768 -1.649306,-1.61782 -2.306074,-2.306073 -0.780897,-0.818334 -0.726896,-1.01737 0.665384,-2.452439 0.791116,-0.815431 0.47307,-1.139203 -1.119054,-1.139203 -0.849732,0 -1.213521,-0.04694 -1.339408,-0.172826 -0.25388099,-0.253882 -0.25388099,-5.2074464 0,-5.4613284 0.125887,-0.125886 0.489676,-0.172826 1.339408,-0.172826 1.590605,0 1.912776,-0.3264549 1.119054,-1.1339341 -0.89052,-0.905954 -1.179543,-1.2931617 -1.179543,-1.5802446 0,-0.3614286 0.749815,-1.2078351 2.820233,-3.1835366 0.667772,-0.6372233 1.025174,-0.664496 1.585396,-0.1209787 1.249614,1.212353 1.493736,1.3463987 1.833418,1.0067162 0.126533,-0.1265326 0.172827,-0.4939999 0.172827,-1.3718369 0,-1.1674505 0.0081,-1.2027056 0.30814,-1.3394078 0.420988,-0.1918153 4.7697135,-0.1918153 5.1907025,0 0.300029,0.1367022 0.308139,0.1719573 0.308139,1.3394078 0,1.233024 0.107438,1.5446636 0.532524,1.5446636 0.165412,0 0.733192,-0.4627232 1.595792,-1.3005217 0.425881,-0.4136353 0.823941,-0.3469062 1.443352,0.2419575 2.090114,1.9870354 2.840206,2.827994 2.840206,3.1842665 0,0.1768645 -0.16287,0.4698137 -0.393181,0.7072033 -1.212352,1.2496133 -1.346399,1.4937357 -1.006716,1.8334183 0.126679,0.1266782 0.495011,0.1728272 1.379422,0.1728272 h 1.206594 l 0.132813,0.380989 c 0.175366,0.5030544 0.175366,4.5419474 0,5.0450024 l -0.132813,0.380989 h -1.206594 c -0.884411,0 -1.252743,0.04615 -1.379422,0.172827 -0.339683,0.339683 -0.205636,0.583805 1.006716,1.833419 0.539424,0.556002 0.512601,0.901084 -0.120978,1.556349 -2.377234,2.458603 -2.811835,2.84928 -3.169631,2.84928 -0.274748,0 -0.721806,-0.339815 -1.710953,-1.300522 -0.322786,-0.313504 -0.597805,-0.345875 -0.844304,-0.09938 -0.126533,0.126533 -0.172827,0.494 -0.172827,1.371838 0,1.16745 -0.0081,1.202706 -0.308139,1.339407 -0.403369,0.183787 -4.8432975,0.177623 -5.2266405,-0.0073 z m 4.0830345,-2.401543 c 0,-1.16464 0.113675,-1.443103 0.589112,-1.443103 0.133903,0 0.277105,-0.05444 0.318228,-0.120979 0.04112,-0.06654 0.180438,-0.120979 0.309588,-0.120979 0.129149,0 0.234817,-0.05444 0.234817,-0.120979 0,-0.06654 0.08166,-0.120978 0.181468,-0.120978 0.09981,0 0.181468,-0.05444 0.181468,-0.120979 0,-0.06654 0.139116,-0.120979 0.309147,-0.120979 0.21803,0 0.519139,0.213941 1.02162,0.725873 0.39186,0.39923 0.799783,0.725872 0.906495,0.725872 0.106711,0 0.59969,-0.405669 1.095508,-0.901486 0.495817,-0.495818 0.901487,-0.988797 0.901487,-1.095509 0,-0.106712 -0.326643,-0.514635 -0.725873,-0.906495 -0.65746,-0.645324 -0.939692,-1.209788 -0.604893,-1.209788 0.06654,0 0.120978,-0.108881 0.120978,-0.241957 0,-0.133077 0.05444,-0.241958 0.120979,-0.241958 0.06654,0 0.120979,-0.105667 0.120979,-0.234817 0,-0.12915 0.05444,-0.268464 0.120979,-0.309587 0.06654,-0.04112 0.120978,-0.184326 0.120978,-0.318229 0,-0.475437 0.278463,-0.589112 1.443104,-0.589112 h 1.09745 v -1.451745 -1.451745 h -1.09745 c -1.164641,0 -1.443104,-0.113676 -1.443104,-0.589113 0,-0.133902 -0.05444,-0.2771054 -0.120978,-0.3182284 -0.06654,-0.04112 -0.120979,-0.180437 -0.120979,-0.309587 0,-0.12915 -0.04083,-0.235242 -0.09073,-0.235761 -0.110298,-0.0012 -0.393181,-0.5884094 -0.393181,-0.8162371 0,-0.090227 0.326642,-0.4846619 0.725872,-0.8765221 0.39923,-0.3918601 0.725873,-0.7997827 0.725873,-0.9064947 0,-0.106712 -0.40567,-0.5996909 -0.901487,-1.0955087 C 17.92709,5.1035772 17.434111,4.6979081 17.3274,4.6979081 c -0.106712,0 -0.514635,0.3266426 -0.906495,0.7258726 -0.502481,0.5119312 -0.80359,0.7258725 -1.02162,0.7258725 -0.170031,0 -0.309147,-0.05444 -0.309147,-0.1209787 0,-0.066538 -0.08166,-0.1209788 -0.181468,-0.1209788 -0.09981,0 -0.181468,-0.05444 -0.181468,-0.1209788 0,-0.066538 -0.105668,-0.1209787 -0.234817,-0.1209787 -0.12915,0 -0.268464,-0.054441 -0.309588,-0.1209788 -0.04112,-0.066538 -0.184325,-0.1209787 -0.318228,-0.1209787 -0.475437,0 -0.589112,-0.2784627 -0.589112,-1.4431038 V 2.8832266 h -1.451745 -1.451746 v 1.0974503 c 0,1.2014419 -0.109977,1.4431038 -0.6567415,1.4431038 -0.171099,0 -0.311089,0.05444 -0.311089,0.1209787 0,0.066538 -0.108881,0.1209788 -0.241957,0.1209788 -0.133077,0 -0.241958,0.05444 -0.241958,0.1209787 0,0.066538 -0.108881,0.1209788 -0.241957,0.1209788 -0.133077,0 -0.241958,0.054441 -0.241958,0.1209788 0,0.3347987 -0.564464,0.052567 -1.209787,-0.6048938 -0.391861,-0.39923 -0.805432,-0.7258726 -0.919049,-0.7258726 -0.25668,0 -1.984442,1.7429739 -1.984442,2.0019143 0,0.1040067 0.326643,0.5097159 0.725873,0.901576 0.65746,0.645324 0.939692,1.2097877 0.604894,1.2097877 -0.06654,0 -0.120979,0.1088809 -0.120979,0.2419575 0,0.133077 -0.05444,0.241958 -0.120979,0.241958 -0.06654,0 -0.120979,0.105667 -0.120979,0.234817 0,0.12915 -0.05444,0.268464 -0.120978,0.309587 -0.06654,0.04112 -0.120979,0.1843264 -0.120979,0.3182284 0,0.475437 -0.278463,0.589113 -1.443104,0.589113 h -1.09745 v 1.451745 1.451745 h 1.09745 c 1.164641,0 1.443104,0.113675 1.443104,0.589112 0,0.133903 0.05444,0.277106 0.120979,0.318229 0.06654,0.04112 0.120978,0.180437 0.120978,0.309587 0,0.12915 0.05444,0.234817 0.120979,0.234817 0.06654,0 0.120979,0.108881 0.120979,0.241958 0,0.133076 0.05444,0.241957 0.120979,0.241957 0.334798,0 0.05257,0.564464 -0.604894,1.209788 -0.39923,0.39186 -0.725873,0.803295 -0.725873,0.914299 0,0.262904 1.726287,1.989191 1.989191,1.989191 0.111004,0 0.522439,-0.326642 0.9143,-0.725872 0.645323,-0.657461 1.209787,-0.939693 1.209787,-0.604894 0,0.06654 0.108881,0.120979 0.241958,0.120979 0.133076,0 0.241957,0.05444 0.241957,0.120978 0,0.06654 0.108881,0.120979 0.241958,0.120979 0.133076,0 0.241957,0.05444 0.241957,0.120979 0,0.06654 0.13999,0.120979 0.311089,0.120979 0.5467645,0 0.6567415,0.241662 0.6567415,1.443103 v 1.097451 h 1.451746 1.451745 z"
     id="path860"
     inkscape:export-xdpi="95"
     inkscape:export-ydpi="95" />
  <path
     style="fill:#958b62;fill-opacity:1;stroke-width:0.316359"
     d="m 10.976856,16.795785 c 0,-0.06654 -0.160108,-0.120979 -0.355796,-0.120979 -0.195688,0 -0.389443,-0.05444 -0.430566,-0.120979 -0.04112,-0.06654 -0.180437,-0.120978 -0.3095865,-0.120978 -0.12915,0 -0.234818,-0.04115 -0.234818,-0.09145 0,-0.05029 -0.168253,-0.165922 -0.373894,-0.256948 -0.479354,-0.212182 -1.122168,-0.854996 -1.334351,-1.33435 -0.09103,-0.205642 -0.206652,-0.373894 -0.256948,-0.373894 -0.05029,0 -0.09145,-0.105668 -0.09145,-0.234818 0,-0.12915 -0.05444,-0.268464 -0.120979,-0.309587 -0.06654,-0.04112 -0.120979,-0.234877 -0.120979,-0.430565 0,-0.195688 -0.05444,-0.355797 -0.120978,-0.355797 -0.06913,0 -0.120979,-0.362936 -0.120979,-0.846851 0,-0.483915 0.05185,-0.846851 0.120979,-0.846851 0.06654,0 0.120978,-0.160109 0.120978,-0.355797 0,-0.195688 0.05444,-0.389442 0.120979,-0.430565 0.06654,-0.04112 0.120979,-0.180437 0.120979,-0.309587 0,-0.12915 0.04115,-0.234818 0.09145,-0.234818 0.0503,0 0.167101,-0.1709154 0.259567,-0.3798114 0.199233,-0.450098 0.898223,-1.1365439 1.369925,-1.3453391 0.184635,-0.081728 0.335701,-0.1897467 0.335701,-0.2400423 0,-0.050296 0.105668,-0.091446 0.234818,-0.091446 0.1291495,0 0.2684635,-0.05444 0.3095865,-0.1209787 0.04112,-0.066538 0.234878,-0.1209788 0.430566,-0.1209788 0.195688,0 0.355796,-0.054441 0.355796,-0.1209788 0,-0.069131 0.362937,-0.1209787 0.846852,-0.1209787 0.483915,0 0.846851,0.051848 0.846851,0.1209787 0,0.066538 0.160108,0.1209788 0.355796,0.1209788 0.195689,0 0.389443,0.05444 0.430566,0.1209788 0.04112,0.066538 0.180437,0.1209787 0.309587,0.1209787 0.129149,0 0.234817,0.041151 0.234817,0.091446 0,0.050296 0.155229,0.1601575 0.344954,0.2441376 0.443464,0.1962963 1.179805,0.9326378 1.376101,1.3761018 0.08398,0.189724 0.193842,0.3449534 0.244138,0.3449534 0.05029,0 0.09145,0.136101 0.09145,0.302447 0,0.166346 0.05444,0.302447 0.120979,0.302447 0.06654,0 0.120979,0.163321 0.120979,0.362936 0,0.199615 0.05444,0.362937 0.120979,0.362937 0.06913,0 0.120978,0.362936 0.120978,0.846851 0,0.483915 -0.05185,0.846851 -0.120978,0.846851 -0.06654,0 -0.120979,0.163322 -0.120979,0.362937 0,0.199614 -0.05444,0.362936 -0.120979,0.362936 -0.06654,0 -0.120979,0.136101 -0.120979,0.302447 0,0.166346 -0.04115,0.302447 -0.09145,0.302447 -0.0503,0 -0.158315,0.151065 -0.240042,0.335701 -0.208796,0.471701 -0.895242,1.170691 -1.34534,1.369924 -0.208896,0.09247 -0.379811,0.209272 -0.379811,0.259567 0,0.0503 -0.105668,0.09145 -0.234817,0.09145 -0.12915,0 -0.268464,0.05444 -0.309587,0.120978 -0.04112,0.06654 -0.234877,0.120979 -0.430566,0.120979 -0.195688,0 -0.355796,0.05444 -0.355796,0.120979 0,0.06913 -0.362936,0.120979 -0.846851,0.120979 -0.483915,0 -0.846852,-0.05185 -0.846852,-0.120979 z m 1.693703,-1.400606 c 0.232884,-0.04595 0.567931,-0.185133 0.744548,-0.309299 0.176617,-0.124165 0.356023,-0.225755 0.39868,-0.225755 0.100969,0 0.671453,-0.570485 0.671453,-0.671454 0,-0.04266 0.1219,-0.248749 0.270888,-0.457983 0.234918,-0.329913 0.270887,-0.533347 0.270887,-1.532096 0,-0.998749 -0.03597,-1.202184 -0.270887,-1.532096 -0.148988,-0.209234 -0.270888,-0.415327 -0.270888,-0.457984 0,-0.04266 -0.133626,-0.2111844 -0.296947,-0.3745054 -0.163322,-0.163321 -0.331849,-0.296948 -0.374506,-0.296948 -0.04266,0 -0.222063,-0.10159 -0.39868,-0.225756 -0.760467,-0.5346235 -2.422332,-0.5346235 -3.182799,0 -0.176617,0.124166 -0.3560235,0.225756 -0.3986805,0.225756 -0.109898,0 -0.670906,0.5743114 -0.674143,0.6901294 -0.0015,0.05293 -0.10915,0.232334 -0.239268,0.39868 -0.130117,0.166346 -0.237788,0.448945 -0.239267,0.627999 -0.0015,0.179053 -0.05713,0.359197 -0.123669,0.40032 -0.15735,0.09725 -0.15735,0.991562 0,1.088809 0.06654,0.04112 0.122189,0.221268 0.123669,0.400321 0.0015,0.179054 0.10915,0.461653 0.239267,0.627999 0.130118,0.166346 0.237788,0.345752 0.239268,0.39868 0.0035,0.125135 0.567684,0.689321 0.692819,0.692819 0.05293,0.0015 0.2323345,0.10915 0.3986805,0.239267 0.166345,0.130118 0.448945,0.237788 0.627998,0.239268 0.179054,0.0015 0.362357,0.06224 0.40734,0.135025 0.07896,0.127757 0.429356,0.107204 1.384237,-0.0812 z"
     id="path862" />
</svg>
