<?xml version="1.0" encoding="UTF-8" standalone="no"?>
<svg
   xmlns:dc="http://purl.org/dc/elements/1.1/"
   xmlns:cc="http://creativecommons.org/ns#"
   xmlns:rdf="http://www.w3.org/1999/02/22-rdf-syntax-ns#"
   xmlns:svg="http://www.w3.org/2000/svg"
   xmlns="http://www.w3.org/2000/svg"
   xmlns:sodipodi="http://sodipodi.sourceforge.net/DTD/sodipodi-0.dtd"
   xmlns:inkscape="http://www.inkscape.org/namespaces/inkscape"
   id="svg1"
   width="21"
   height="21"
   viewBox="0 0 21 21"
   version="1.1"
   sodipodi:docname="hide.svg"
   inkscape:version="0.92.4 (5da689c313, 2019-01-14)">
  <metadata
     id="metadata12">
    <rdf:RDF>
      <cc:Work
         rdf:about="">
        <dc:format>image/svg+xml</dc:format>
        <dc:type
           rdf:resource="http://purl.org/dc/dcmitype/StillImage" />
        <dc:title />
      </cc:Work>
    </rdf:RDF>
  </metadata>
  <defs
     id="defs10" />
  <sodipodi:namedview
     pagecolor="#ffffff"
     bordercolor="#666666"
     borderopacity="1"
     objecttolerance="10"
     gridtolerance="10"
     guidetolerance="10"
     inkscape:pageopacity="0"
     inkscape:pageshadow="2"
     inkscape:window-width="1366"
     inkscape:window-height="705"
     id="namedview8"
     showgrid="false"
     inkscape:zoom="11.313708"
     inkscape:cx="10.643735"
     inkscape:cy="13.444012"
     inkscape:window-x="-8"
     inkscape:window-y="-8"
     inkscape:window-maximized="1"
     inkscape:current-layer="svg1" />
  <path
     style="fill:#80d6c6;stroke:#80d6c6;stroke-width:1px;stroke-linecap:butt;stroke-linejoin:miter;stroke-opacity:1"
     d="M 1.8665716,11.976347 C 4.7121328,10.009339 7.8806568,16.923861 11.3,16.4 c 3.638887,-0.557496 8.749631,-5.738817 8.749631,-5.738817 l -0.07996,2.111089 c 0,0 -1.71965,3.486382 -7.66967,4.927728 -3.9211635,0.949871 -10.8232233,-3.111611 -10.8232233,-3.111611 0,0 -0.059939,-2.301162 0.3897939,-2.612042 z"
     id="path845"
     inkscape:connector-curvature="0"
     sodipodi:nodetypes="ssccscs" />
  <path
     style="opacity:1;vector-effect:none;fill:#bfeae2;fill-opacity:1;fill-rule:evenodd;stroke:#00ac8c;stroke-width:1;stroke-linecap:round;stroke-linejoin:round;stroke-miterlimit:4;stroke-dasharray:none;stroke-dashoffset:0;stroke-opacity:1"
     d="m 1.5130182,12.948619 c 2.625,1.899662 5.994953,3.479655 9.3011488,3.446304 2.376945,-0.02398 4.783315,-1.122262 6.635593,-2.612063 1.253007,-1.007803 2.97033,-2.392119 2.688259,-4.0055601 -5.702408,-2.1213722 -4.769075,-1.3999856 -9.698852,-1.3999856 -4.9297768,0 -7.2214228,0.3411789 -8.9261488,4.5713047 z"
     id="path850"
     inkscape:connector-curvature="0"
     sodipodi:nodetypes="ccacsc" />
  <path
     style="opacity:1;vector-effect:none;fill:#80d6c6;fill-opacity:1;fill-rule:evenodd;stroke:#00ac8c;stroke-width:1;stroke-linecap:round;stroke-linejoin:round;stroke-miterlimit:4;stroke-dasharray:none;stroke-dashoffset:0;stroke-opacity:1"
     d="m 1.6734262,12.31306 c 0,0.892602 4.482812,3.815477 9.3314818,3.815477 4.848667,0 9.158353,-5.572358 9.158353,-6.4649611 0,-0.8926028 -4.627084,-4.311228 -9.398677,-3.4501372 -4.8486688,0.875 -9.0911578,5.2070183 -9.0911578,6.0996213 z"
     id="path868"
     inkscape:connector-curvature="0"
     sodipodi:nodetypes="sssss" />
</svg>
