<?xml version="1.0" encoding="UTF-8" standalone="no"?>
<svg
   id="svg1"
   width="21"
   height="21"
   viewBox="0 0 21 21"
   version="1.1"
   sodipodi:docname="show.svg"
   inkscape:version="1.2 (dc2aedaf03, 2022-05-15)"
   xmlns:inkscape="http://www.inkscape.org/namespaces/inkscape"
   xmlns:sodipodi="http://sodipodi.sourceforge.net/DTD/sodipodi-0.dtd"
   xmlns="http://www.w3.org/2000/svg"
   xmlns:svg="http://www.w3.org/2000/svg"
   xmlns:rdf="http://www.w3.org/1999/02/22-rdf-syntax-ns#"
   xmlns:cc="http://creativecommons.org/ns#"
   xmlns:dc="http://purl.org/dc/elements/1.1/">
  <metadata
     id="metadata12">
    <rdf:RDF>
      <cc:Work
         rdf:about="">
        <dc:format>image/svg+xml</dc:format>
        <dc:type
           rdf:resource="http://purl.org/dc/dcmitype/StillImage" />
      </cc:Work>
    </rdf:RDF>
  </metadata>
  <defs
     id="defs10" />
  <sodipodi:namedview
     pagecolor="#ffffff"
     bordercolor="#666666"
     borderopacity="1"
     objecttolerance="10"
     gridtolerance="10"
     guidetolerance="10"
     inkscape:pageopacity="0"
     inkscape:pageshadow="2"
     inkscape:window-width="1920"
     inkscape:window-height="1001"
     id="namedview8"
     showgrid="false"
     inkscape:zoom="5.6568542"
     inkscape:cx="17.589281"
     inkscape:cy="5.9220193"
     inkscape:window-x="-9"
     inkscape:window-y="-9"
     inkscape:window-maximized="1"
     inkscape:current-layer="g19192"
     inkscape:showpageshadow="0"
     inkscape:pagecheckerboard="0"
     inkscape:deskcolor="#d1d1d1" />
  <g
     id="g19192"
     transform="matrix(1.08504,0,0,1.0887188,25.662378,4.408754)"
     style="stroke-width:0.920067">
    <path
       style="opacity:1;vector-effect:none;fill:#dffdf7;fill-opacity:1;fill-rule:evenodd;stroke:#009081;stroke-width:0.920067;stroke-linecap:round;stroke-linejoin:round;stroke-miterlimit:4;stroke-dasharray:none;stroke-dashoffset:0;stroke-opacity:1"
       d="m -22.931592,6.9509712 c 2.608651,2.1197685 5.957615,3.8828288 9.24322,3.8456138 2.362141,-0.02676 4.8115859,-1.1774184 6.5942659,-2.9147125 1.1864748,-1.156268 2.4858627,-2.9302208 2.3220403,-4.6001371 C -8.2273691,0.7188658 -11.883355,0.04732716 -14.759988,0.54532628 -16.738881,0.8879097 -22.169419,3.3348008 -22.931592,6.9509712 Z"
       id="path850"
       inkscape:connector-curvature="0"
       sodipodi:nodetypes="ccacsc" />
    <ellipse
       ry="3.8014123"
       rx="3.7225585"
       cy="6.5992541"
       cx="-13.464323"
       id="path848"
       style="vector-effect:none;fill:#009081;fill-opacity:1;fill-rule:evenodd;stroke:none;stroke-width:0.920067;stroke-linecap:round;stroke-linejoin:round;stroke-miterlimit:4;stroke-dasharray:none;stroke-dashoffset:0;stroke-opacity:1" />
    <ellipse
       ry="1.4494083"
       rx="1.4193429"
       cy="7.1136618"
       cx="-12.720752"
       id="path848-6"
       style="vector-effect:none;fill:#bafaee;fill-opacity:1;fill-rule:evenodd;stroke:none;stroke-width:0.920067;stroke-linecap:round;stroke-linejoin:round;stroke-miterlimit:4;stroke-dasharray:none;stroke-dashoffset:0;stroke-opacity:1" />
    <path
       style="fill:#73e0cf;fill-opacity:1;stroke:#009081;stroke-width:0.920067px;stroke-linecap:butt;stroke-linejoin:miter;stroke-opacity:1"
       d="m -22.161826,8.0313599 c 4.005375,-3.1518209 7.143407,-4.0214931 10.580818,-4.0694169 1.7959705,-0.025039 3.3815502,0.2421575 5.1555926,1.532499 1.3037207,0.9482552 1.3058803,-0.6232438 1.3058803,-0.6232438 0,0 -0.2256521,-1.0435865 -2.3064163,-1.8768665 -1.8579709,-0.7440582 -3.7306866,-0.8998612 -5.9797016,-0.6973315 -2.249014,0.2025296 -4.467022,0.7227991 -5.834394,1.2496999 -2.084164,0.8031085 -3.879606,1.9271486 -3.879606,1.9271486 0,0 -0.458372,3.6719164 0.957827,2.5575112 z"
       id="path845"
       inkscape:connector-curvature="0"
       sodipodi:nodetypes="ssscssscs" />
  </g>
</svg>
