<?xml version="1.0" encoding="UTF-8" standalone="no"?>
<svg
   xmlns:dc="http://purl.org/dc/elements/1.1/"
   xmlns:cc="http://creativecommons.org/ns#"
   xmlns:rdf="http://www.w3.org/1999/02/22-rdf-syntax-ns#"
   xmlns:svg="http://www.w3.org/2000/svg"
   xmlns="http://www.w3.org/2000/svg"
   xmlns:sodipodi="http://sodipodi.sourceforge.net/DTD/sodipodi-0.dtd"
   xmlns:inkscape="http://www.inkscape.org/namespaces/inkscape"
   id="svg1"
   width="21"
   height="21"
   viewBox="0 0 21 21"
   version="1.1"
   sodipodi:docname="centroid_qgis.svg"
   inkscape:version="0.92.4 (5da689c313, 2019-01-14)">
  <metadata
     id="metadata12">
    <rdf:RDF>
      <cc:Work
         rdf:about="">
        <dc:format>image/svg+xml</dc:format>
        <dc:type
           rdf:resource="http://purl.org/dc/dcmitype/StillImage" />
        <dc:title />
      </cc:Work>
    </rdf:RDF>
  </metadata>
  <defs
     id="defs10" />
  <sodipodi:namedview
     pagecolor="#ffffff"
     bordercolor="#666666"
     borderopacity="1"
     objecttolerance="10"
     gridtolerance="10"
     guidetolerance="10"
     inkscape:pageopacity="0"
     inkscape:pageshadow="2"
     inkscape:window-width="1366"
     inkscape:window-height="705"
     id="namedview8"
     showgrid="false"
     inkscape:zoom="2.8284271"
     inkscape:cx="-45.179539"
     inkscape:cy="21.922162"
     inkscape:window-x="-8"
     inkscape:window-y="-8"
     inkscape:window-maximized="1"
     inkscape:current-layer="svg1" />
  <g
     id="g5"
     transform="translate(-3.0381442,-2.1683066)">
     id = &quot;g1&quot;
    <g
   id="g839"
   transform="matrix(1.25,0,0,1.25,-2.625,-2.625)"
   style="stroke-width:0.80000001">
  <circle
     style="fill:#e6f7f4;stroke-width:0.80000007"
     id="circle2-2"
     r="4.4000001"
     cx="10.5"
     cy="10.5" />
  <circle
     style="fill:#80d6c6;stroke-width:0.80000007"
     id="circle2"
     r="4"
     cx="10.5"
     cy="10.5" />
  <circle
     style="fill:#bfeae2;stroke-width:0.80000007"
     id="circle2-7"
     r="2"
     cx="10.5"
     cy="10.5" />
</g>
</g>
  <g
     transform="matrix(0.18776992,0,0,0.18769056,7.727922,6.2264949)"
     id="g823"
     style="fill:#00ac8c;stroke:none;stroke-width:5.11372089">
    <polygon
       id="polygon2"
       stroke-opacity="param(outline-opacity) 0"
       fill-opacity="param(fill-opacity)"
       points="26.613,27.625 26.613,36.695 34.613,44.593 34.613,35.471 43.81,35.438 35.836,27.625 "
       style="fill:#00ac8c;stroke:none;stroke-width:1.5980376;stroke-miterlimit:4;stroke-dasharray:none" />
    <polygon
       id="polygon4"
       stroke-opacity="param(outline-opacity) 0"
       fill-opacity="param(fill-opacity)"
       points="38.613,48.688 53.553,63.625 63.613,63.625 63.613,54.844 47.819,39.367 38.613,39.354 "
       style="fill:#00ac8c;stroke:none;stroke-width:1.5980376;stroke-miterlimit:4;stroke-dasharray:none" />
    <path
       inkscape:connector-curvature="0"
       id="path6"
       stroke-opacity="param(outline-opacity) 0"
       fill-opacity="param(fill-opacity)"
       d="m 35.553,50.859 c -1.359,0.313 -1.988,0.312 -3.446,0.312 -10.429,0 -19.299,-8.575 -19.299,-19.696 0,-11.12 8.772,-19.506 19.299,-19.506 10.527,0 18.911,8.387 18.911,19.506 0,1.809 -0.227,3.548 -0.644,5.198 l 9.653,9.651 c 2.488,-4.36 3.881,-9.43 3.881,-14.922 C 63.908,14.264 50.23,1.431 31.911,1.431 13.677,1.431 0,14.179 0,31.401 c 0,17.306 13.677,30.308 31.912,30.308 4.708,0 8.394,-0.586 12.334,-2.161 z"
       style="fill:#00ac8c;stroke:none;stroke-width:1.5980376;stroke-miterlimit:4;stroke-dasharray:none" />
  </g>
</svg>
