<?xml version="1.0" encoding="UTF-8" standalone="no"?>
<svg
   xmlns:dc="http://purl.org/dc/elements/1.1/"
   xmlns:cc="http://creativecommons.org/ns#"
   xmlns:rdf="http://www.w3.org/1999/02/22-rdf-syntax-ns#"
   xmlns:svg="http://www.w3.org/2000/svg"
   xmlns="http://www.w3.org/2000/svg"
   xmlns:sodipodi="http://sodipodi.sourceforge.net/DTD/sodipodi-0.dtd"
   xmlns:inkscape="http://www.inkscape.org/namespaces/inkscape"
   id="svg1"
   width="21"
   height="21"
   viewBox="0 0 21 21"
   version="1.1"
   sodipodi:docname="show.svg"
   inkscape:version="0.92.4 (5da689c313, 2019-01-14)">
  <metadata
     id="metadata12">
    <rdf:RDF>
      <cc:Work
         rdf:about="">
        <dc:format>image/svg+xml</dc:format>
        <dc:type
           rdf:resource="http://purl.org/dc/dcmitype/StillImage" />
        <dc:title />
      </cc:Work>
    </rdf:RDF>
  </metadata>
  <defs
     id="defs10" />
  <sodipodi:namedview
     pagecolor="#ffffff"
     bordercolor="#666666"
     borderopacity="1"
     objecttolerance="10"
     gridtolerance="10"
     guidetolerance="10"
     inkscape:pageopacity="0"
     inkscape:pageshadow="2"
     inkscape:window-width="1366"
     inkscape:window-height="705"
     id="namedview8"
     showgrid="false"
     inkscape:zoom="8"
     inkscape:cx="-16.934326"
     inkscape:cy="15.643463"
     inkscape:window-x="-8"
     inkscape:window-y="-8"
     inkscape:window-maximized="1"
     inkscape:current-layer="svg1" />
  <path
     style="opacity:1;vector-effect:none;fill:#bfeae2;fill-opacity:1;fill-rule:evenodd;stroke:#00ac8c;stroke-width:1;stroke-linecap:round;stroke-linejoin:round;stroke-miterlimit:4;stroke-dasharray:none;stroke-dashoffset:0;stroke-opacity:1"
     d="m 1.5130182,12.948619 c 2.625,1.899662 5.994953,3.479655 9.3011488,3.446304 2.376945,-0.02398 4.783315,-1.122262 6.635593,-2.612063 1.253007,-1.007803 2.97033,-2.392119 2.688259,-4.0055601 -5.702408,-2.1213722 -4.769075,-1.3999856 -9.698852,-1.3999856 -4.9297768,0 -7.2214228,0.3411789 -8.9261488,4.5713047 z"
     id="path850"
     inkscape:connector-curvature="0"
     sodipodi:nodetypes="ccacsc" />
  <g
     id="g897"
     transform="translate(-0.4620874,1.6111359)">
    <ellipse
       ry="3.5390737"
       rx="3.4648719"
       cy="10.846081"
       cx="11.782724"
       id="path848"
       style="opacity:1;vector-effect:none;fill:#009b7e;fill-opacity:1;fill-rule:evenodd;stroke:none;stroke-width:1;stroke-linecap:round;stroke-linejoin:round;stroke-miterlimit:4;stroke-dasharray:none;stroke-dashoffset:0;stroke-opacity:1" />
    <ellipse
       ry="1.3493835"
       rx="1.3210917"
       cy="11.324988"
       cx="12.474824"
       id="path848-6"
       style="opacity:1;vector-effect:none;fill:#e8f5ef;fill-opacity:1;fill-rule:evenodd;stroke:none;stroke-width:1;stroke-linecap:round;stroke-linejoin:round;stroke-miterlimit:4;stroke-dasharray:none;stroke-dashoffset:0;stroke-opacity:1" />
  </g>
  <path
     style="fill:#80d6c6;stroke:#80d6c6;stroke-width:1px;stroke-linecap:butt;stroke-linejoin:miter;stroke-opacity:1"
     d="M 2.4028122,14.185661 C 6.4332889,11.013364 9.1371346,9.7765972 12.58624,9.512008 c 4.138887,-0.317504 6.624631,1.863817 6.624631,1.863817 l 0.927148,-1.5985251 c 0,0 0.648242,0.7510541 -5.301778,-0.6902919 -3.921163,-0.949871 -13.3232228,3.861611 -13.3232228,3.861611 0,0 -0.53528172,2.358687 0.889794,1.237042 z"
     id="path845"
     inkscape:connector-curvature="0"
     sodipodi:nodetypes="ssccscs" />
  <path
     style="opacity:1;vector-effect:none;fill:#80d6c6;fill-opacity:1;fill-rule:evenodd;stroke:#00ac8c;stroke-width:1;stroke-linecap:round;stroke-linejoin:round;stroke-miterlimit:4;stroke-dasharray:none;stroke-dashoffset:0;stroke-opacity:1"
     d="m 1.6734262,12.31306 c 0,0.892602 6.795312,-4.1220232 11.6439818,-4.1220232 4.848667,0 6.845853,2.3651422 6.845853,1.4725391 0,-0.8926028 -4.627084,-4.311228 -9.398677,-3.4501372 -4.8486688,0.875 -9.0911578,5.2070183 -9.0911578,6.0996213 z"
     id="path868"
     inkscape:connector-curvature="0"
     sodipodi:nodetypes="sssss" />
</svg>
